<?xml version='1.0' encoding='UTF-8'?>
<svg x="0px" y="0px" viewBox="0 0 32 32" version="1.1" xmlns="http://www.w3.org/2000/svg" xmlns:xlink="http://www.w3.org/1999/xlink" xml:space="preserve" id="Layer_1" style="enable-background:new 0 0 32 32">
  <style type="text/css">
	.Blue{fill:#1177D7;}
	.Yellow{fill:#FFB115;}
	.Black{fill:#727272;}
	.Green{fill:#039C23;}
	.Red{fill:#D11C1C;}
	.st0{opacity:0.75;}
	.st1{opacity:0.5;}
</style>
  <g id="User">
    <path d="M10,9.9c-0.1,0.5,0.2,0.9,0.4,1.4c0.2,0.5-0.1,1.7,0.9,1.6c0,0,0,0.1,0,0.2c0.6,2.3,2,4.9,4.7,4.9   c2.7,0,4.2-2.6,4.7-4.9c0,0,0-0.1,0-0.1c1,0.1,0.6-1.1,0.9-1.6c0.2-0.5,0.4-0.9,0.3-1.4c-0.1-0.4-0.4-0.4-0.5-0.3   c1.8-4.9-1.1-4.7-1.1-4.7S20,2,14.8,2C10,2,9.4,6,10.5,9.6C10.4,9.6,10.1,9.7,10,9.9z" class="Black" />
    <path d="M20,18c-0.8,1.5-2.1,4-4,4c-1.9,0-3.2-2.5-4-4c-2.3,3.5-8,1-8,8.5V30h24v-3.5C28,19.1,22.3,21.4,20,18z" class="Black" />
  </g>
</svg>